<?xml version="1.0" standalone="no"?>
<!DOCTYPE svg PUBLIC "-//W3C//DTD SVG 20010904//EN"
 "http://www.w3.org/TR/2001/REC-SVG-20010904/DTD/svg10.dtd">
<svg version="1.0" xmlns="http://www.w3.org/2000/svg"
 width="523.000000pt" height="432.000000pt" viewBox="0 0 523.000000 432.000000"
 preserveAspectRatio="xMidYMid meet">

<g transform="translate(0.000000,432.000000) scale(0.100000,-0.100000)"
fill="#000000" stroke="none">
<path d="M2545 4304 c-93 -8 -260 -35 -356 -60 -270 -67 -565 -209 -778 -374
-43 -33 -81 -60 -86 -60 -4 0 -33 24 -65 53 -72 66 -150 112 -253 151 -79 29
-88 30 -247 30 -153 0 -170 -2 -238 -26 -502 -180 -665 -791 -314 -1178 91
-102 210 -174 352 -216 41 -13 74 -26 74 -31 -41 -230 -49 -536 -20 -737 33
-226 88 -408 190 -622 74 -154 143 -263 250 -399 360 -451 906 -745 1495 -805
359 -36 746 40 1116 221 226 109 403 239 594 433 l114 116 421 2 421 3 3 515
c2 283 0 539 -3 568 l-7 53 -156 -1 c-86 -1 -163 -1 -170 -1 -10 1 -12 29 -6
139 11 246 -27 513 -113 773 -175 537 -553 974 -1061 1228 -200 100 -428 174
-635 206 -99 15 -420 27 -522 19z m215 -439 c0 -158 -1 -165 -20 -165 -19 0
-20 7 -20 158 0 87 3 162 7 165 3 4 12 7 20 7 10 0 13 -34 13 -165z m-1858
100 c304 -64 528 -337 528 -645 0 -109 -23 -202 -76 -309 l-46 -93 11 -91 c6
-50 9 -93 7 -95 -2 -2 -25 19 -51 47 -26 28 -51 51 -56 51 -5 0 -39 -20 -76
-44 -135 -86 -272 -123 -422 -113 -167 11 -312 76 -429 190 -137 135 -194 267
-195 452 0 128 17 207 69 305 68 129 165 224 299 291 135 67 286 85 437 54z
m2052 -360 c215 -33 399 -119 532 -250 89 -88 140 -169 163 -258 16 -58 17
-60 68 -79 30 -11 64 -33 82 -54 29 -32 31 -41 33 -117 7 -227 -12 -267 -141
-292 l-56 -12 -5 -119 c-6 -135 -21 -177 -86 -234 -78 -68 -37 -65 -798 -68
-790 -3 -751 -7 -842 82 -65 64 -84 120 -84 251 l0 92 -50 6 c-118 14 -140 52
-140 241 l0 136 33 36 c20 22 52 42 87 54 53 18 54 19 70 77 71 255 340 455
684 508 113 18 332 18 450 0z m-1700 -1187 c24 -24 42 -61 66 -133 46 -140 90
-229 150 -303 l51 -63 -33 -52 c-51 -81 -145 -212 -161 -225 -36 -30 -186 222
-229 383 -16 61 -21 112 -22 212 -1 119 1 134 20 160 46 62 109 70 158 21z
m2182 -377 c-4 -6 -1 -11 6 -11 7 -1 -12 -11 -42 -24 -111 -46 -205 -121 -259
-205 -17 -26 -49 -91 -70 -144 -22 -52 -53 -115 -69 -140 -105 -152 -312 -191
-474 -88 -63 40 -109 105 -159 226 -22 55 -55 121 -71 148 -39 61 -135 148
-203 183 -49 26 -61 41 -43 54 3 3 318 7 698 9 511 2 691 1 686 -8z m1243 -37
c42 -9 89 -56 97 -98 l6 -34 112 -7 c61 -4 130 -4 154 0 48 7 82 -1 82 -18 0
-9 -472 -317 -566 -370 -20 -12 -598 357 -591 377 2 7 59 12 169 14 l166 2 10
43 c12 45 43 82 77 90 31 7 248 8 284 1z m-2635 -80 c75 -26 177 -128 221
-220 19 -41 51 -108 71 -149 47 -101 126 -185 212 -227 62 -31 73 -33 172 -33
93 0 111 3 163 27 66 31 158 114 193 174 13 22 42 84 63 137 22 52 53 116 71
141 55 82 187 165 259 166 51 0 119 -37 146 -79 l23 -36 7 -495 c5 -378 4
-510 -5 -560 -19 -95 -23 -100 -65 -89 -51 14 -77 4 -73 -29 3 -23 10 -29 46
-36 23 -6 42 -15 42 -22 0 -7 -21 -54 -47 -105 -85 -171 -238 -297 -418 -344
-239 -63 -619 -57 -837 11 -184 58 -302 167 -389 360 -37 82 -37 90 6 98 37 7
59 34 49 60 -7 18 -49 21 -88 6 -47 -18 -50 12 -54 606 l-3 540 23 35 c25 38
98 79 138 79 15 0 48 -7 74 -16z m-381 -94 l67 -34 0 -209 0 -209 -27 6 c-82
20 -323 159 -323 188 0 5 13 27 28 47 16 20 61 85 101 144 40 60 75 107 79
105 4 -2 37 -19 75 -38z m2225 -221 l2 -196 -77 -26 c-43 -14 -79 -24 -80 -23
-6 6 -11 434 -5 440 3 4 40 5 82 4 l75 -3 3 -196z m247 36 c77 -51 204 -131
282 -178 l142 -86 285 184 286 183 0 -434 0 -434 -580 0 -580 0 0 436 c0 345
3 434 13 428 6 -5 75 -49 152 -99z"/>
<path d="M236 3494 c-8 -21 -8 -20 10 -38 22 -23 166 -23 189 0 9 9 14 23 11
31 -3 8 -6 17 -6 19 0 2 -45 4 -99 4 -81 0 -100 -3 -105 -16z"/>
<path d="M535 3490 c-15 -46 5 -51 198 -48 155 3 181 5 190 20 8 12 7 21 -2
32 -11 14 -42 16 -197 16 -175 0 -183 -1 -189 -20z"/>
<path d="M943 3322 c-178 -3 -192 -6 -177 -47 9 -23 35 -26 228 -23 166 3 180
4 192 23 30 46 0 52 -243 47z"/>
<path d="M240 3301 c-7 -15 -6 -23 6 -35 23 -24 395 -24 418 0 18 18 18 17 10
38 -5 14 -34 16 -215 16 -196 0 -209 -1 -219 -19z"/>
<path d="M250 3124 c-10 -11 -11 -20 -3 -32 9 -15 30 -17 144 -17 l134 0 0 30
0 30 -131 3 c-111 2 -133 0 -144 -14z"/>
<path d="M631 3122 c-6 -11 -6 -24 0 -35 9 -15 31 -17 208 -17 215 0 235 5
211 49 -10 20 -19 21 -210 21 -181 0 -200 -2 -209 -18z"/>
<path d="M2237 3186 c-96 -35 -165 -108 -193 -204 -23 -77 -16 -302 10 -352
31 -59 96 -119 154 -140 50 -19 78 -20 517 -20 432 0 468 1 515 19 69 26 121
71 156 133 28 52 29 56 29 203 0 174 -12 212 -87 287 -86 86 -61 83 -593 85
-377 2 -478 0 -508 -11z"/>
<path d="M4941 1276 c-19 -23 -9 -49 22 -60 32 -12 60 1 65 29 5 22 -6 31 -44
39 -21 5 -35 2 -43 -8z"/>
<path d="M4102 1248 l3 -33 350 -3 c193 -1 360 0 371 3 24 5 36 27 28 50 -5
13 -57 15 -381 15 l-374 0 3 -32z"/>
<path d="M4102 1068 l3 -33 369 0 c329 0 370 2 379 16 6 9 7 24 4 33 -6 14
-43 16 -382 16 l-376 0 3 -32z"/>
<path d="M4937 1094 c-4 -4 -7 -18 -7 -30 0 -27 34 -40 76 -30 20 5 25 12 22
34 -3 24 -8 27 -43 30 -23 2 -44 0 -48 -4z"/>
</g>
</svg>
